<svg width="101.84375px" height="259.4px" xmlns="http://www.w3.org/2000/svg" viewBox="199.078125 -54.69999999999999 101.84375 259.4" style="background: none;" preserveAspectRatio="xMidYMid"><defs><filter id="editing-raise" x="-100%" y="-100%" width="300%" height="300%"><feFlood flood-color="#ff87ff" result="flood-surface"></feFlood><feFlood flood-color="rgba(0%,0%,0%,0)" result="flood-extrude"></feFlood><feMorphology operator="erode" in="SourceAlpha" radius="1" result="erode"></feMorphology><feConvolveMatrix in="erode" result="shadow" order="11,8" divisor="1" kernelMatrix="0 0 0 1 1 1 1 1 0 0 0 0 0 1 0 0 0 0 0 1 0 0 0 0 1 0 0 0 0 0 1 0 0 0 0 1 0 0 0 0 0 1 0 0 0 0 1 0 0 0 0 0 1 0 0 0 0 0 1 0 0 0 1 0 0 0 0 0 0 1 1 0 1 1 0 0 0 0 0 0 0 0 1 0 0 0 0 0"></feConvolveMatrix><feOffset dx="0" dy="4" in="shadow" result="offset"></feOffset><feGaussianBlur in="offset" stdDeviation="0.2" result="blur"></feGaussianBlur><feComposite operator="in" in="flood-extrude" in2="blur" result="extrude"></feComposite><feMorphology operator="erode" in="SourceAlpha" radius="1" result="erode2"></feMorphology><feConvolveMatrix in="erode2" result="out" order="4,4" divisor="1" kernelMatrix="0 1 1 0 1 0 0 1 1 0 0 1 0 1 1 0 "></feConvolveMatrix><feComposite operator="in" in="flood-surface" in2="out" result="text"></feComposite><feMerge><feMergeNode in="extrude"></feMergeNode><feMergeNode in="text"></feMergeNode></feMerge></filter></defs><g filter="url(#editing-raise)"><g transform="translate(221.84001636505127, 128.36000061035156)"><path d="M50.67-55.63L50.67-55.63L50.74-29.60L50.74-29.60Q50.74-17.14 44.48-8.54L44.48-8.54L44.48-8.54Q37.11 1.38 23.96 1.38L23.96 1.38L23.96 1.38Q13.63 1.38 7.44-5.51L7.44-5.51L7.44-5.51Q1.79-11.77 1.79-20.65L1.79-20.65L1.79-20.65Q4.89-27.81 8.40-31.60L8.40-31.60L8.40-31.60Q14.18-37.87 18.04-38.55L18.04-38.55L18.04-38.55Q16.94-32.29 16.94-27.06L16.94-27.06L16.94-27.06Q16.94-21.82 17.38-18.21L17.38-18.21L17.38-18.21Q17.83-14.60 18.86-11.77L18.86-11.77L18.86-11.77Q21.14-5.51 26.02-5.51L26.02-5.51L26.02-5.51Q30.29-5.51 32.50-11.02L32.50-11.02L32.50-11.02Q34.35-15.56 34.35-23.20L34.35-23.20L34.35-39.73L34.35-39.73Q34.35-69.60 33.94-90.05L33.94-90.05L33.94-90.05Q33.80-95.49 32.32-99.04L32.32-99.04L32.32-99.04Q30.84-102.58 27.33-105.34L27.33-105.34L54.53-105.34L54.53-105.34Q52.46-101.62 52.01-97.35L52.01-97.35L52.01-97.35Q51.57-93.08 51.22-87.99L51.22-87.99L51.22-87.99Q50.67-78.28 50.67-55.63Z"></path></g></g><style>text {
  font-size: 64px;
  font-family: Arial Black;
  dominant-baseline: central;
  text-anchor: middle;
}</style></svg>